<svg width="393" height="209" viewBox="0 0 393 209" fill="none" xmlns="http://www.w3.org/2000/svg">
<rect width="393" height="209" fill="white"/>
<path d="M309.415 62L392.915 62L392.915 13L309.415 13C258.428 13 268.928 62 309.415 62Z" fill="url(#paint0_linear)"/>
<path d="M-7.25609e-06 13C22.013 13 43.1243 21.7446 58.6899 37.3101C74.2554 52.8757 83 73.987 83 96C83 118.013 74.2554 139.124 58.6899 154.69C43.1243 170.255 22.013 179 1.52588e-05 179L-3.62805e-06 96L-7.25609e-06 13Z" fill="url(#paint1_linear)"/>
<circle cx="113.5" cy="158.5" r="24.5" fill="url(#paint2_linear)"/>
<defs>
<linearGradient id="paint0_linear" x1="333.957" y1="62" x2="333.957" y2="13" gradientUnits="userSpaceOnUse">
<stop stop-color="#EC15D6"/>
<stop offset="1" stop-color="#F1106F" stop-opacity="0.5"/>
</linearGradient>
<linearGradient id="paint1_linear" x1="-3.62805e-06" y1="96" x2="83" y2="96" gradientUnits="userSpaceOnUse">
<stop stop-color="#EC15D6"/>
<stop offset="1" stop-color="#F1106F" stop-opacity="0.5"/>
</linearGradient>
<linearGradient id="paint2_linear" x1="113.5" y1="134" x2="113.5" y2="183" gradientUnits="userSpaceOnUse">
<stop stop-color="#EC15D6"/>
<stop offset="1" stop-color="#F1106F" stop-opacity="0.5"/>
</linearGradient>
</defs>
</svg>
